# xmcd CD database file
#
# Track frame offsets:
#	150
#	25478
#	49588
#	73518
#	96470
#	119543
#	142383
#	160905
#	184413
#	198255
#	217598
#	243378
#
# Disc length: 3607 seconds
#
# Revision: 0
# Processed by: cddbd v1.5.1PL0 Copyright (c) Steve Scherf et al.
# Submitted via: CDex 1.51
#
DISCID=b40e150c
DTITLE=SPEED - MOMENT
DYEAR=1998
DGENRE=JPop
TTITLE0=White Love
TTITLE1=ALL MY TRUE LOVE
TTITLE2=STEADY
TTITLE3=Wake Me UP! (growin'up! mix)
TTITLE4=ALIVE
TTITLE5=Body and Soul
TTITLE6=ナマイキ(愛■■■Version)
TTITLE7=Go! Go! Heaven
TTITLE8=熱帯夜
TTITLE9=Luv Vibration
TTITLE10=my graduation
TTITLE11=White Love (Christmas Standard)
EXTD=YEAR: 1998
EXTT0=
EXTT1=
EXTT2=
EXTT3=
EXTT4=
EXTT5=
EXTT6=
EXTT7=
EXTT8=
EXTT9=
EXTT10=
EXTT11=
PLAYORDER=
